<svg xmlns="http://www.w3.org/2000/svg" xmlns:xlink="http://www.w3.org/1999/xlink" version="1.1" width="1000" height="1000" viewBox="0 0 1000 1000" xml:space="preserve">
<desc>Created with Fabric.js 3.5.0</desc>
<defs>
</defs>
<rect x="0" y="0" width="100%" height="100%" fill="#ffffff"/>
<g transform="matrix(12.1228 0 0 12.1228 499.9993 499.9993)" id="263744">
<g style="" vector-effect="non-scaling-stroke">
		<g transform="matrix(1 0 0 1 1 6.9594)" id="Icons">
<path style="stroke: none; stroke-width: 1; stroke-dasharray: none; stroke-linecap: butt; stroke-dashoffset: 0; stroke-linejoin: miter; stroke-miterlimit: 4; is-custom-font: none; font-file-url: none; fill: rgb(0,0,0); fill-rule: nonzero; opacity: 1;" transform=" translate(-17, -22.9594)" d="M 29.5 14.1 c -0.3 -0.2 -0.7 -0.2 -1 0 l -4.6 2.3 C 23.7 15 22.5 14 21 14 H 7 c -1.7 0 -3 1.3 -3 3 v 6 c 0 1.7 1.3 3 3 3 h 5.1 l -3 4.4 c -0.3 0.5 -0.2 1.1 0.3 1.4 c 0.5 0.3 1.1 0.2 1.4 -0.3 l 3.2 -4.8 l 3.2 4.8 c 0.2 0.3 0.5 0.4 0.8 0.4 c 0.2 0 0.4 -0.1 0.6 -0.2 c 0.5 -0.3 0.6 -0.9 0.3 -1.4 l -3 -4.4 H 21 c 1.5 0 2.7 -1 2.9 -2.4 l 4.6 2.3 C 28.7 26 28.8 26 29 26 c 0.2 0 0.4 -0.1 0.5 -0.1 c 0.3 -0.2 0.5 -0.5 0.5 -0.9 V 15 C 30 14.7 29.8 14.3 29.5 14.1 z" stroke-linecap="round"/>
</g>
		<g transform="matrix(1 0 0 1 -2 -9)" id="Icons">
<path style="stroke: none; stroke-width: 1; stroke-dasharray: none; stroke-linecap: butt; stroke-dashoffset: 0; stroke-linejoin: miter; stroke-miterlimit: 4; is-custom-font: none; font-file-url: none; fill: rgb(0,0,0); fill-rule: nonzero; opacity: 1;" transform=" translate(-14, -7)" d="M 19 1 c -2.1 0 -3.9 1.1 -5 2.7 C 12.9 2.1 11.1 1 9 1 C 5.7 1 3 3.7 3 7 s 2.7 6 6 6 c 2.1 0 3.9 -1.1 5 -2.7 c 1.1 1.6 2.9 2.7 5 2.7 c 3.3 0 6 -2.7 6 -6 S 22.3 1 19 1 z M 9 9 C 7.9 9 7 8.1 7 7 s 0.9 -2 2 -2 s 2 0.9 2 2 S 10.1 9 9 9 z M 19 9 c -1.1 0 -2 -0.9 -2 -2 s 0.9 -2 2 -2 s 2 0.9 2 2 S 20.1 9 19 9 z" stroke-linecap="round"/>
</g>
</g>
</g>
<g transform="matrix(1 0 0 1 266.4513 428.159)" style="" id="670631">
		
<path xml:space="preserve" font-family="Lato" font-size="108" font-style="normal" font-weight="bold" style="stroke: none; stroke-width: 1; stroke-dasharray: none; stroke-linecap: butt; stroke-dashoffset: 0; stroke-linejoin: miter; stroke-miterlimit: 4; is-custom-font: none; font-file-url: none; fill: rgb(0,0,0); fill-rule: nonzero; opacity: 1; white-space: pre;" d="M-37.56-24.07L-48.47-24.07L-48.47 3.42L-62.99 3.42L-62.99-74.67L-37.56-74.67Q-29.73-74.67-24.00-72.83Q-18.28-70.99-14.55-67.70Q-10.83-64.41-9.05-59.82Q-7.26-55.23-7.26-49.77L-7.26-49.77Q-7.26-44.10-9.15-39.38Q-11.04-34.65-14.82-31.25Q-18.60-27.85-24.27-25.96Q-29.94-24.07-37.56-24.07L-37.56-24.07ZM-48.47-63.43L-48.47-35.41L-37.56-35.41Q-33.56-35.41-30.59-36.41Q-27.62-37.41-25.68-39.27Q-23.73-41.13-22.76-43.81Q-21.79-46.48-21.79-49.77L-21.79-49.77Q-21.79-52.90-22.76-55.44Q-23.73-57.98-25.68-59.76Q-27.62-61.54-30.59-62.49Q-33.56-63.43-37.56-63.43L-37.56-63.43L-48.47-63.43Z"/><path xml:space="preserve" font-family="Lato" font-size="108" font-style="normal" font-weight="bold" style="stroke: none; stroke-width: 1; stroke-dasharray: none; stroke-linecap: butt; stroke-dashoffset: 0; stroke-linejoin: miter; stroke-miterlimit: 4; is-custom-font: none; font-file-url: none; fill: rgb(0,0,0); fill-rule: nonzero; opacity: 1; white-space: pre;" d="M30.43 3.42L17.09 3.42L17.09-76.83L30.43-76.83L30.43-45.99Q33.67-49.07 37.56-50.96Q41.45-52.85 46.68-52.85L46.68-52.85Q51.22-52.85 54.73-51.31Q58.24-49.77 60.59-46.99Q62.94-44.21 64.15-40.35Q65.37-36.49 65.37-31.84L65.37-31.84L65.37 3.42L52.03 3.42L52.03-31.84Q52.03-36.92 49.68-39.70Q47.33-42.48 42.63-42.48L42.63-42.48Q39.18-42.48 36.15-40.92Q33.13-39.35 30.43-36.65L30.43-36.65L30.43 3.42Z"/></g>
<g transform="matrix(1 0 0 1 480.1291 390.869)" style="" id="102124">
		
<path xml:space="preserve" font-family="Lato" font-size="96" font-style="normal" font-weight="bold" style="stroke: none; stroke-width: 1; stroke-dasharray: none; stroke-linecap: butt; stroke-dashoffset: 0; stroke-linejoin: miter; stroke-miterlimit: 4; is-custom-font: none; font-file-url: none; fill: rgb(221,84,84); fill-rule: nonzero; opacity: 1; white-space: pre;" d="M3.94 30.93L3.94 30.93Q-2.45 30.93-5.90 27.30Q-9.36 23.68-9.36 17.29L-9.36 17.29L-9.36-10.21L-14.35-10.21Q-15.31-10.21-16.01-10.83Q-16.70-11.46-16.70-12.71L-16.70-12.71L-16.70-17.41L-8.78-18.71L-6.29-32.15Q-6.10-33.11-5.40-33.63Q-4.70-34.16-3.65-34.16L-3.65-34.16L2.50-34.16L2.50-18.66L15.46-18.66L15.46-10.21L2.50-10.21L2.50 16.48Q2.50 18.78 3.65 20.08Q4.80 21.37 6.72 21.37L6.72 21.37Q7.82 21.37 8.57 21.11Q9.31 20.85 9.86 20.56Q10.42 20.27 10.85 20.01Q11.28 19.74 11.71 19.74L11.71 19.74Q12.24 19.74 12.58 20.01Q12.91 20.27 13.30 20.80L13.30 20.80L16.85 26.56Q14.26 28.72 10.90 29.82Q7.54 30.93 3.94 30.93Z"/></g>
<g transform="matrix(1 0 0 1 139.9352 545.7077)" style="" id="817683">
		
<path xml:space="preserve" font-family="Lato" font-size="96" font-style="normal" font-weight="bold" style="stroke: none; stroke-width: 1; stroke-dasharray: none; stroke-linecap: butt; stroke-dashoffset: 0; stroke-linejoin: miter; stroke-miterlimit: 4; is-custom-font: none; font-file-url: none; fill: rgb(0,0,0); fill-rule: nonzero; opacity: 1; white-space: pre;" d="M-71.76 20.65L-71.76 20.65Q-67.39 20.65-64.15 19.86Q-60.91 19.07-57.98 17.68L-57.98 17.68L-57.98 5.05L-66.67 5.05Q-67.92 5.05-68.64 4.36Q-69.36 3.66-69.36 2.65L-69.36 2.65L-69.36-4.64L-46.27-4.64L-46.27 23.44Q-48.91 25.36-51.77 26.77Q-54.62 28.19-57.86 29.10Q-61.10 30.01-64.80 30.47Q-68.50 30.93-72.77 30.93L-72.77 30.93Q-80.35 30.93-86.74 28.29Q-93.12 25.65-97.78 20.94Q-102.43 16.24-105.05 9.71Q-107.66 3.18-107.66-4.55L-107.66-4.55Q-107.66-12.37-105.12-18.90Q-102.58-25.43-97.90-30.13Q-93.22-34.83-86.54-37.43Q-79.87-40.02-71.57-40.02L-71.57-40.02Q-63.07-40.02-56.86-37.50Q-50.64-34.98-46.32-30.95L-46.32-30.95L-50.06-25.09Q-51.17-23.31-52.99-23.31L-52.99-23.31Q-54.14-23.31-55.34-24.08L-55.34-24.08Q-56.88-24.99-58.49-25.91Q-60.10-26.82-62.04-27.49Q-63.98-28.16-66.41-28.59Q-68.83-29.03-72-29.03L-72-29.03Q-77.14-29.03-81.29-27.30Q-85.44-25.57-88.37-22.35Q-91.30-19.14-92.88-14.63Q-94.46-10.11-94.46-4.55L-94.46-4.55Q-94.46 1.45-92.78 6.13Q-91.10 10.81-88.08 14.03Q-85.06 17.25-80.88 18.95Q-76.70 20.65-71.76 20.65Z"/><path xml:space="preserve" font-family="Lato" font-size="96" font-style="normal" font-weight="bold" style="stroke: none; stroke-width: 1; stroke-dasharray: none; stroke-linecap: butt; stroke-dashoffset: 0; stroke-linejoin: miter; stroke-miterlimit: 4; is-custom-font: none; font-file-url: none; fill: rgb(0,0,0); fill-rule: nonzero; opacity: 1; white-space: pre;" d="M-19.87 30.16L-31.73 30.16L-31.73-19.09L-24.77-19.09Q-22.94-19.09-22.22-18.42Q-21.50-17.75-21.26-16.11L-21.26-16.11L-20.54-10.16Q-17.90-14.72-14.35-17.36Q-10.80-20.00-6.38-20.00L-6.38-20.00Q-2.74-20.00-0.34-18.32L-0.34-18.32L-1.87-9.44Q-2.02-8.58-2.50-8.22Q-2.98-7.86-3.79-7.86L-3.79-7.86Q-4.51-7.86-5.76-8.19Q-7.01-8.53-9.07-8.53L-9.07-8.53Q-12.77-8.53-15.41-6.49Q-18.05-4.45-19.87-0.51L-19.87-0.51L-19.87 30.16Z"/><path xml:space="preserve" font-family="Lato" font-size="96" font-style="normal" font-weight="bold" style="stroke: none; stroke-width: 1; stroke-dasharray: none; stroke-linecap: butt; stroke-dashoffset: 0; stroke-linejoin: miter; stroke-miterlimit: 4; is-custom-font: none; font-file-url: none; fill: rgb(0,0,0); fill-rule: nonzero; opacity: 1; white-space: pre;" d="M47.86-0.95L47.86 30.16L42.53 30.16Q40.85 30.16 39.89 29.65Q38.93 29.15 38.45 27.61L38.45 27.61L37.39 24.11Q35.52 25.79 33.72 27.06Q31.92 28.33 30 29.20Q28.08 30.06 25.92 30.49Q23.76 30.93 21.12 30.93L21.12 30.93Q18 30.93 15.36 30.09Q12.72 29.25 10.82 27.57Q8.93 25.89 7.87 23.39Q6.82 20.89 6.82 17.58L6.82 17.58Q6.82 14.80 8.28 12.09Q9.74 9.37 13.15 7.19Q16.56 5.01 22.22 3.57Q27.89 2.13 36.29 1.93L36.29 1.93L36.29-0.95Q36.29-5.89 34.20-8.27Q32.11-10.64 28.13-10.64L28.13-10.64Q25.25-10.64 23.33-9.97Q21.41-9.30 19.99-8.46Q18.58-7.62 17.38-6.95Q16.18-6.27 14.74-6.27L14.74-6.27Q13.54-6.27 12.67-6.90Q11.81-7.52 11.28-8.43L11.28-8.43L9.12-12.23Q17.62-20.00 29.62-20.00L29.62-20.00Q33.94-20.00 37.32-18.59Q40.70-17.17 43.06-14.65Q45.41-12.13 46.63-8.63Q47.86-5.12 47.86-0.95L47.86-0.95ZM24.82 22.77L24.82 22.77Q26.64 22.77 28.18 22.43Q29.71 22.09 31.08 21.42Q32.45 20.75 33.72 19.77Q34.99 18.78 36.29 17.44L36.29 17.44L36.29 9.13Q31.10 9.37 27.62 10.02Q24.14 10.67 22.03 11.68Q19.92 12.69 19.03 14.03Q18.14 15.37 18.14 16.96L18.14 16.96Q18.14 20.08 19.99 21.42Q21.84 22.77 24.82 22.77Z"/><path xml:space="preserve" font-family="Lato" font-size="96" font-style="normal" font-weight="bold" style="stroke: none; stroke-width: 1; stroke-dasharray: none; stroke-linecap: butt; stroke-dashoffset: 0; stroke-linejoin: miter; stroke-miterlimit: 4; is-custom-font: none; font-file-url: none; fill: rgb(0,0,0); fill-rule: nonzero; opacity: 1; white-space: pre;" d="M74.54 46.24L62.69 46.24L62.69-19.09L69.94-19.09Q71.09-19.09 71.90-18.56Q72.72-18.03 72.96-16.93L72.96-16.93L73.92-12.37Q76.90-15.78 80.76-17.89Q84.62-20.00 89.81-20.00L89.81-20.00Q93.84-20.00 97.18-18.32Q100.51-16.64 102.94-13.45Q105.36-10.26 106.68-5.58Q108-0.90 108 5.15L108 5.15Q108 10.67 106.51 15.37Q105.02 20.08 102.26 23.53Q99.50 26.99 95.59 28.93Q91.68 30.88 86.83 30.88L86.83 30.88Q82.66 30.88 79.75 29.61Q76.85 28.33 74.54 26.08L74.54 26.08L74.54 46.24ZM85.73-10.64L85.73-10.64Q82.03-10.64 79.42-9.08Q76.80-7.52 74.54-4.69L74.54-4.69L74.54 17.39Q76.56 19.89 78.94 20.87Q81.31 21.85 84.05 21.85L84.05 21.85Q86.74 21.85 88.92 20.85Q91.10 19.84 92.62 17.77Q94.13 15.71 94.94 12.57Q95.76 9.42 95.76 5.15L95.76 5.15Q95.76 0.83 95.06-2.17Q94.37-5.17 93.07-7.04Q91.78-8.91 89.93-9.78Q88.08-10.64 85.73-10.64Z"/></g>
<g transform="matrix(1 0 0 1 417.8063 545.7077)" style="" id="396265">
		
<path xml:space="preserve" font-family="Lato" font-size="96" font-style="normal" font-weight="bold" style="stroke: none; stroke-width: 1; stroke-dasharray: none; stroke-linecap: butt; stroke-dashoffset: 0; stroke-linejoin: miter; stroke-miterlimit: 4; is-custom-font: none; font-file-url: none; fill: rgb(255,255,255); fill-rule: nonzero; opacity: 1; white-space: pre;" d="M-18.58-19.86L-18.58-19.86Q-13.92-19.86-10.01-18.37Q-6.10-16.88-3.26-14.03Q-0.43-11.17 1.15-7.02Q2.74-2.87 2.74 2.46L2.74 2.46Q2.74 3.81 2.62 4.69Q2.50 5.58 2.18 6.09Q1.87 6.59 1.34 6.81Q0.82 7.02 0 7.02L0 7.02L-30.43 7.02Q-29.90 14.61-26.35 18.16Q-22.80 21.71-16.94 21.71L-16.94 21.71Q-14.06 21.71-11.98 21.04Q-9.89 20.37-8.33 19.55Q-6.77 18.73-5.59 18.06Q-4.42 17.39-3.31 17.39L-3.31 17.39Q-2.59 17.39-2.06 17.68Q-1.54 17.97-1.15 18.49L-1.15 18.49L2.30 22.81Q0.34 25.12-2.11 26.68Q-4.56 28.24-7.22 29.17Q-9.89 30.11-12.65 30.49Q-15.41 30.88-18.00 30.88L-18.00 30.88Q-23.14 30.88-27.55 29.17Q-31.97 27.47-35.23 24.13Q-38.50 20.80-40.37 15.88Q-42.24 10.96-42.24 4.48L-42.24 4.48Q-42.24-0.56-40.61-5.00Q-38.98-9.44-35.93-12.73Q-32.88-16.02-28.49-17.94Q-24.10-19.86-18.58-19.86ZM-18.34-11.36L-18.34-11.36Q-23.52-11.36-26.45-8.43Q-29.38-5.51-30.19-0.13L-30.19-0.13L-7.92-0.13Q-7.92-2.43-8.54-4.47Q-9.17-6.51-10.46-8.05Q-11.76-9.59-13.73-10.47Q-15.70-11.36-18.34-11.36ZM24.24 30.16L12.38 30.16L12.38-19.09L19.34-19.09Q21.17-19.09 21.89-18.42Q22.61-17.75 22.85-16.11L22.85-16.11L23.57-10.16Q26.21-14.72 29.76-17.36Q33.31-20.00 37.73-20.00L37.73-20.00Q41.38-20.00 43.78-18.32L43.78-18.32L42.24-9.44Q42.10-8.58 41.62-8.22Q41.14-7.86 40.32-7.86L40.32-7.86Q39.60-7.86 38.35-8.19Q37.10-8.53 35.04-8.53L35.04-8.53Q31.34-8.53 28.70-6.49Q26.06-4.45 24.24-0.51L24.24-0.51L24.24 30.16Z"/></g>
<g transform="matrix(0.1032 0 0 0.1032 303.8608 545.7253)" id="672643">
<g style="" vector-effect="non-scaling-stroke">
		<g transform="matrix(2.6848 0 0 2.6848 -0.001 -0.0024)" id="_x33_9-Film_Reel_Playing">
<path style="stroke: none; stroke-width: 1; stroke-dasharray: none; stroke-linecap: butt; stroke-dashoffset: 0; stroke-linejoin: miter; stroke-miterlimit: 4; is-custom-font: none; font-file-url: none; fill: rgb(0,0,0); fill-rule: nonzero; opacity: 1;" transform=" translate(-148.9865, -148.986)" d="M 289.997 3.986 h -52.521 c -4.405 0 -7.976 3.572 -7.976 7.978 v 13.19 H 68.473 v -13.19 c 0 -4.406 -3.569 -7.978 -7.976 -7.978 H 7.976 C 3.57 3.986 0 7.559 0 11.965 v 274.043 c 0 4.406 3.57 7.978 7.976 7.978 h 52.521 c 4.406 0 7.976 -3.572 7.976 -7.978 v -13.19 H 229.5 v 13.19 c 0 4.406 3.57 7.978 7.976 7.978 h 52.521 c 4.406 0 7.976 -3.572 7.976 -7.978 V 11.965 C 297.973 7.559 294.403 3.986 289.997 3.986 z M 50.986 245.736 h -33.5 v -33.5 h 33.5 V 245.736 z M 50.986 165.736 h -33.5 v -33.5 h 33.5 V 165.736 z M 50.986 85.736 h -33.5 v -33.5 h 33.5 V 85.736 z M 229.5 239.654 H 68.473 V 58.318 H 229.5 V 239.654 z M 280.486 245.736 h -33.5 v -33.5 h 33.5 V 245.736 z M 280.486 165.736 h -33.5 v -33.5 h 33.5 V 165.736 z M 280.486 85.736 h -33.5 v -33.5 h 33.5 V 85.736 z" stroke-linecap="round"/>
</g>
		<g transform="matrix(2.6848 0 0 2.6848 -0.0017 -0.0017)" id="_x33_9-Film_Reel_Playing">
<path style="stroke: none; stroke-width: 1; stroke-dasharray: none; stroke-linecap: butt; stroke-dashoffset: 0; stroke-linejoin: miter; stroke-miterlimit: 4; is-custom-font: none; font-file-url: none; fill: rgb(0,0,0); fill-rule: nonzero; opacity: 1;" transform=" translate(-148.986, -148.986)" d="M 148.986 203.777 c 30.26 0 54.791 -24.531 54.791 -54.791 s -24.531 -54.791 -54.791 -54.791 s -54.791 24.531 -54.791 54.791 S 118.727 203.777 148.986 203.777 z M 133.507 122.563 c 0 -1.348 0.759 -2.584 1.962 -3.193 c 1.206 -0.605 2.648 -0.486 3.733 0.313 l 35.908 26.424 c 0.913 0.674 1.455 1.744 1.455 2.881 s -0.542 2.205 -1.455 2.879 l -35.908 26.426 c -0.625 0.461 -1.368 0.695 -2.119 0.695 c -0.55 0 -1.103 -0.127 -1.614 -0.383 c -1.203 -0.609 -1.962 -1.846 -1.962 -3.193 V 122.563 z" stroke-linecap="round"/>
</g>
</g>
</g>
<g transform="matrix(0.3234 0 0 0.1761 304.1354 544.945)" id="270675">
<path style="stroke: rgb(255,255,255); stroke-width: 5; stroke-dasharray: none; stroke-linecap: butt; stroke-dashoffset: 0; stroke-linejoin: miter; stroke-miterlimit: 4; is-custom-font: none; font-file-url: none; fill: rgb(255,255,255); fill-rule: nonzero; opacity: 1;" vector-effect="non-scaling-stroke" transform=" translate(-46.5001, -78.5)" d="M 2.6167 78.5 C 2.6167 57.2341 7.7391 38.064 15.8764 24.2946 C 24.0482 10.4665 34.9664 2.5 46.5001 2.5 C 58.0338 2.5 68.952 10.4665 77.1238 24.2946 C 85.2611 38.064 90.3835 57.2341 90.3835 78.5 C 90.3835 99.7659 85.2611 118.936 77.1238 132.705 C 68.952 146.533 58.0338 154.5 46.5001 154.5 C 34.9664 154.5 24.0482 146.533 15.8764 132.705 C 7.7391 118.936 2.6167 99.7659 2.6167 78.5 Z" stroke-linecap="round"/>
</g>
</svg>